<svg width="120" height="120" viewBox="0 0 120 120" fill="none" xmlns="http://www.w3.org/2000/svg">
<path d="M104.582 24.4508L66.7432 2.00953C62.246 -0.669842 56.6401 -0.669842 52.1428 2.00953L14.2968 24.4508C9.74447 27.1942 6.97281 32.1279 7.0002 37.4388V82.3139C6.97548 87.622 9.7468 92.5522 14.2968 95.2942L52.1352 117.728C56.6329 120.406 62.238 120.406 66.7357 117.728L104.574 95.2942C109.129 92.5527 111.904 87.6187 111.878 82.3063V37.4388C111.906 32.1279 109.134 27.1942 104.582 24.4508Z" fill="white"/>
<path d="M104.797 24.5047L66.8748 2.01395C62.3677 -0.671318 56.7494 -0.671318 52.2422 2.01395L14.3129 24.5047C9.75052 27.2541 6.97275 32.1987 7.0002 37.5213V82.4952C6.97543 87.815 9.75285 92.7561 14.3129 95.5041L52.2346 117.987C56.7423 120.671 62.3596 120.671 66.8672 117.987L104.789 95.5041C109.354 92.7566 112.135 87.8117 112.109 82.4876V37.5213C112.137 32.1987 109.359 27.2541 104.797 24.5047ZM53.5635 115.689L15.6418 93.2058C11.8943 90.9373 9.61177 86.8723 9.62764 82.4952V37.5213C9.61025 33.1437 11.8932 29.078 15.6418 26.8107L53.5635 4.31992C57.2542 2.12043 61.8553 2.12043 65.546 4.31992L103.437 26.8107C106.561 28.7006 108.692 31.8698 109.262 35.4732C108.001 32.7955 105.169 32.0598 101.866 33.9561L66.0168 56.1359C61.5442 58.7377 58.2487 61.6732 58.2411 67.0588V111.221C58.2411 114.445 59.5396 116.531 61.5442 117.145C60.8878 117.265 60.2221 117.329 59.5547 117.335C57.446 117.333 55.3765 116.765 53.5635 115.689Z" fill="#373737"/>
<path d="M94.7528 86.7468L85.3273 92.3779C85.0748 92.4793 84.9057 92.7194 84.8954 92.991V95.466C84.8954 95.7687 85.1 95.8898 85.35 95.746L94.9195 89.9332C95.1538 89.7577 95.2659 89.463 95.2074 89.1763V87.0041C95.1998 86.7241 94.9801 86.603 94.7528 86.7468Z" fill="#58E032"/>
<path d="M74.695 66.015C74.9981 65.8636 75.2481 66.015 75.2557 66.4464L75.286 69.7313C76.4194 69.2169 77.684 69.0636 78.9077 69.2923C79.1426 69.3528 79.2411 69.6707 79.1501 70.0492L78.4304 72.9328C78.3758 73.1505 78.2632 73.3493 78.1045 73.5081C78.0488 73.563 77.9849 73.6089 77.9151 73.6443C77.8295 73.6906 77.7307 73.7066 77.6348 73.6897C76.4416 73.4258 75.1925 73.626 74.1419 74.2498C72.6057 74.9411 71.6016 76.4501 71.5582 78.1326C71.5582 79.6463 72.3159 80.0626 74.9602 80.108C78.4531 80.1686 79.9684 81.6899 80.0063 85.2093C79.9232 88.883 78.2275 92.3344 75.3693 94.6476L75.4299 97.8718C75.4246 98.2723 75.2163 98.6427 74.8768 98.8558L72.9675 99.9532C72.6644 100.105 72.4144 99.9532 72.4068 99.5294V96.3581C70.7702 97.0393 69.1109 97.1982 68.0502 96.7744C67.8532 96.6987 67.7623 96.4035 67.8456 96.0629L68.5351 93.1489C68.5875 92.9183 68.706 92.708 68.876 92.5434C68.93 92.4918 68.9913 92.4485 69.0579 92.4148C69.1567 92.3704 69.2697 92.3704 69.3685 92.4148C70.7192 92.7806 72.1599 92.5983 73.3766 91.9077C75.1325 91.0618 76.2735 89.3126 76.3392 87.3664C76.3392 85.7316 75.4375 85.0504 73.3085 85.0353C70.5581 85.0353 68.0047 84.5054 67.9517 80.494C68.015 76.9895 69.6436 73.6968 72.3917 71.5175L72.2553 68.2175C72.2541 67.8113 72.4633 67.4333 72.8084 67.2184L74.695 66.015Z" fill="white"/>
</svg>
