<svg width="120" height="120" viewBox="0 0 120 120" fill="none" xmlns="http://www.w3.org/2000/svg">
<g clip-path="url(#clip0_1_174)">
<path d="M0 0H100.8C105.892 0 110.776 2.02285 114.376 5.62355C117.977 9.22425 120 14.1078 120 19.2V100.8C120 105.892 117.977 110.776 114.376 114.376C110.776 117.977 105.892 120 100.8 120H19.2C14.1078 120 9.22425 117.977 5.62355 114.376C2.02285 110.776 0 105.892 0 100.8L0 0Z" fill="#663399"/>
<path d="M97.9847 110.388C94.0979 110.388 91.1255 109.258 89.0447 106.986C86.9867 104.702 85.9151 101.444 85.8191 97.1892H94.1951C94.2431 100.952 95.5655 102.839 98.1647 102.839C99.4895 102.839 100.428 102.419 100.969 101.588C101.498 100.76 101.776 99.4368 101.776 97.6224C101.776 96.18 101.414 94.9776 100.716 94.0284C99.7683 92.8994 98.5517 92.027 97.1783 91.4916L94.0739 90C91.3067 88.6776 89.2967 87.1152 88.0571 85.2876C86.8535 83.472 86.2523 80.9244 86.2523 77.6676C86.2523 74.0244 87.3119 71.0676 89.4167 68.7948C91.5827 66.5232 94.5311 65.394 98.2967 65.394C101.933 65.394 104.748 66.5112 106.733 68.7348C108.755 70.9716 109.813 74.1684 109.898 78.3516H101.836C101.884 76.9836 101.608 75.6252 101.029 74.3844C100.573 73.4724 99.6815 73.0152 98.3579 73.0152C95.9999 73.0152 94.8203 74.4204 94.8203 77.2212C94.8203 78.6408 95.1083 79.746 95.6867 80.5872C96.5199 81.5179 97.5638 82.2355 98.7311 82.68L101.704 83.9904C104.772 85.3968 106.986 87.1164 108.346 89.196C109.717 91.2636 110.392 94.0284 110.392 97.4904C110.392 101.638 109.308 104.822 107.106 107.046C104.916 109.27 101.87 110.388 97.9847 110.388ZM70.9343 110.388C67.0463 110.388 64.0751 109.258 61.9931 106.986C59.9351 104.702 58.8647 101.444 58.7687 97.1892H67.1435C67.1915 100.952 68.5151 102.839 71.1155 102.839C72.4379 102.839 73.3763 102.419 73.9055 101.588C74.4479 100.76 74.7119 99.4368 74.7119 97.6224C74.7119 96.18 74.3639 94.9776 73.6655 94.0284C72.7179 92.8994 71.5013 92.027 70.1279 91.4916L67.0235 90C64.2551 88.6776 62.2463 87.1152 61.0067 85.2876C59.8031 83.472 59.2019 80.9244 59.2019 77.6676C59.2019 74.0244 60.2603 71.0676 62.3663 68.7948C64.5323 66.5232 67.4807 65.394 71.2463 65.394C74.8811 65.394 77.6963 66.5112 79.6703 68.7348C81.7163 70.9716 82.7627 74.1684 82.8467 78.3516H74.7851C74.8331 76.9836 74.5571 75.6252 73.9787 74.3844C73.5215 73.4724 72.6311 73.0152 71.3075 73.0152C68.9483 73.0152 67.7687 74.4204 67.7687 77.2212C67.7687 78.6408 68.0579 79.746 68.6351 80.5872C69.4683 81.5179 70.5122 82.2355 71.6795 82.68L74.6519 83.9904C77.7203 85.3968 79.9343 87.1164 81.2951 89.196C82.6547 91.2636 83.3399 94.0284 83.3399 97.4904C83.3399 101.638 82.2455 104.822 80.0555 107.046C77.8655 109.27 74.8211 110.388 70.9343 110.388ZM42.7643 110.388C38.9603 110.388 35.9411 109.354 33.7031 107.286C31.4651 105.232 30.3575 102.142 30.3575 98.0544V77.8596C30.3575 73.7976 31.5371 70.7196 33.8951 68.604C36.2903 66.5124 39.4307 65.4552 43.3175 65.4552C47.0843 65.4552 50.0555 66.5364 52.2575 68.676C54.4847 70.8276 55.6031 74.0256 55.6031 78.2928V79.8912H46.7351V78.3408C46.7351 76.6944 46.3739 75.48 45.6755 74.6868C45.3705 74.2902 44.9761 73.9713 44.5244 73.7561C44.0727 73.5409 43.5765 73.4355 43.0763 73.4484C41.6327 73.4484 40.6103 73.9404 40.0319 74.9388C39.4163 76.32 39.1398 77.8283 39.2255 79.338V96.8892C39.2255 100.555 40.5143 102.419 43.0775 102.455C44.2799 102.455 45.1823 102.022 45.8087 101.156C46.489 100.064 46.8127 98.7862 46.7351 97.5012V96.192H55.6031V97.5624C55.6031 100.411 55.0499 102.791 53.9303 104.69C52.8661 106.544 51.269 108.035 49.3463 108.97C47.2931 109.95 45.039 110.435 42.7643 110.388Z" fill="white"/>
</g>
<defs>
<clipPath id="clip0_1_174">
<rect width="120" height="120" fill="white"/>
</clipPath>
</defs>
</svg>
