<svg width="120" height="120" viewBox="0 0 120 120" fill="none" xmlns="http://www.w3.org/2000/svg">
<path d="M118.048 51.6212C115.105 49.6549 107.375 48.8157 101.756 50.3188C101.454 44.7635 98.5652 40.0814 93.2856 35.9958L91.3315 34.6943L90.0287 36.6478C87.4686 40.5044 86.3886 45.6453 86.7709 50.3188C87.0726 53.1987 88.0806 56.434 90.0287 58.7823C82.7152 62.9935 75.9717 62.0372 46.1118 62.0372H0.0101885C-0.123516 68.73 0.959845 81.6012 9.20669 92.0796C10.1186 93.2375 11.1163 94.357 12.2013 95.4354C18.9071 102.1 29.0387 106.987 44.1885 107C67.3014 107.021 87.1026 94.621 99.1489 64.6427C103.112 64.706 113.576 65.3477 118.697 55.5273C118.822 55.3624 120 52.9244 120 52.9244L118.048 51.6229V51.6212ZM30.0972 45.5018H17.133V58.3678H30.0972V45.5018ZM46.8429 45.5018H33.8795V58.3678H46.8429V45.5018ZM63.5911 45.5018H50.6278V58.3678H63.5911V45.5018ZM80.3402 45.5018H67.376V58.3678H80.3402V45.5018ZM13.3481 45.5018H0.384743V58.3678H13.3481V45.5018ZM30.0972 29.2517H17.133V42.1178H30.0972V29.2517ZM46.8429 29.2517H33.8795V42.1178H46.8429V29.2517ZM63.5911 29.2517H50.6278V42.1178H63.5911V29.2517ZM63.5911 13H50.6278V25.866H63.5911V13Z" fill="#1D63ED"/>
</svg>
