<svg width="120" height="120" viewBox="0 0 120 120" fill="none" xmlns="http://www.w3.org/2000/svg">
<path d="M7 0.0353342C7.05742 0.605099 7.10159 1.1307 7.14575 1.65629C7.60068 6.74884 8.04236 11.8458 8.5017 16.9339C9.08472 23.4045 9.67215 29.8883 10.2463 36.3545C10.7322 41.796 11.2136 47.2507 11.695 52.6966C12.2427 58.8315 12.7948 64.962 13.3425 71.1013C13.8239 76.5383 14.3054 81.9975 14.7912 87.4434C15.383 94.0774 15.9837 100.703 16.5491 107.337C16.5844 107.765 16.7213 107.946 17.1453 108.061C31.1774 112.018 45.2007 115.98 59.2151 119.929C59.5685 120.026 59.9925 120.022 60.3458 119.929C74.4221 115.98 88.494 112.027 102.57 108.083C103.052 107.946 103.202 107.738 103.233 107.266C103.533 103.569 103.878 99.8766 104.2 96.1842C104.562 92.1119 104.933 88.0308 105.295 83.9497C105.622 80.3014 105.94 76.662 106.272 73.0093C106.643 68.9282 107.005 64.8471 107.367 60.7705C107.685 57.1266 108.012 53.4872 108.343 49.8345C108.705 45.7711 109.067 41.7076 109.429 37.6442C109.756 33.9871 110.074 30.33 110.414 26.6641C110.777 22.6007 111.139 18.5372 111.501 14.4738C111.828 10.7725 112.155 7.06243 112.504 3.35675C112.596 2.25256 112.689 1.13953 112.795 0C77.5006 0.0353342 42.2945 0.0353342 7 0.0353342ZM91.8993 35.1796C75.0272 35.1796 58.164 35.1796 41.2389 35.1796C41.6364 39.7422 42.0295 44.2605 42.4181 48.7921C58.535 48.7921 74.6032 48.7921 90.7289 48.7921C90.6096 49.7506 90.4594 50.656 90.3755 51.5703C90.1503 53.8714 89.9338 56.177 89.7307 58.4693C89.3597 62.6343 88.9975 66.8259 88.6353 70.9909C88.3173 74.7363 87.9949 78.4596 87.6592 82.2051C87.4516 84.568 87.2175 86.931 87.0188 89.2896C86.9834 89.6606 86.7449 89.6694 86.5285 89.7357C80.8176 91.3081 75.1155 92.8848 69.4047 94.4484C66.2732 95.3185 63.1461 96.1974 60.0102 97.0587C59.8688 97.1029 59.6745 97.0764 59.5243 97.0278C50.6643 94.5941 41.8086 92.1517 32.9574 89.7269C32.5511 89.6253 32.5422 89.3735 32.5157 89.082C32.2905 86.2376 32.0652 83.4153 31.8532 80.5709C31.5573 76.7548 31.2569 72.9343 30.9566 69.1137C30.9478 69.0166 30.9478 68.8973 30.9389 68.7604C35.3115 68.7604 39.6753 68.7604 44.0612 68.7604C44.1716 70.0015 44.2909 71.2426 44.3969 72.4617C44.5912 74.6259 44.7855 76.7857 44.971 78.9632C44.9887 79.2105 45.0638 79.3077 45.3023 79.3783C50.0548 80.646 54.7984 81.9312 59.5597 83.2077C59.7275 83.2563 59.9307 83.2342 60.1029 83.19C64.7935 81.9312 69.4797 80.6548 74.1792 79.4093C74.4619 79.3253 74.5855 79.1972 74.612 78.9102C75.1288 73.3715 75.6544 67.824 76.1888 62.2898C76.1888 62.2722 76.18 62.2501 76.1712 62.1882C60.8759 62.1882 45.5717 62.1882 30.2323 62.1882C29.0265 48.801 27.8339 35.4623 26.637 22.0839C48.8313 22.0839 70.9284 22.0839 93.1404 22.0839C92.7385 26.4477 92.3145 30.7894 91.8993 35.1796Z" fill="#E54C21"/>
</svg>
