<svg width="120" height="120" viewBox="0 0 120 120" fill="none" xmlns="http://www.w3.org/2000/svg">
<g clip-path="url(#clip0_1_164)">
<path d="M120 0H0V120H120V0Z" fill="#F7DF1E"/>
<path d="M31.5524 100.281L40.7357 94.7231C42.5074 97.8643 44.119 100.522 47.9848 100.522C51.6902 100.522 54.0264 99.0724 54.0264 93.4343V55.0914H65.3033V93.5938C65.3033 105.274 58.4569 110.59 48.4681 110.59C39.4469 110.59 34.2105 105.918 31.5524 100.28" fill="black"/>
<path d="M71.4286 99.0724L80.6107 93.756C83.0279 97.7033 86.1693 100.603 91.7272 100.603C96.3998 100.603 99.3793 98.2669 99.3793 95.0448C99.3793 91.1783 96.3186 89.8088 91.1631 87.554L88.3445 86.345C80.2084 82.8819 74.8112 78.5321 74.8112 69.3493C74.8112 60.8914 81.2553 54.4469 91.3245 54.4469C98.4936 54.4469 103.649 56.9443 107.354 63.469L98.5736 69.1074C96.6403 65.644 94.5464 64.2748 91.3245 64.2748C88.0219 64.2748 85.9274 66.369 85.9274 69.1074C85.9274 72.4907 88.0219 73.8602 92.8545 75.9548L95.6736 77.1629C105.259 81.2712 110.656 85.4595 110.656 94.8836C110.656 105.034 102.682 110.591 91.9688 110.591C81.4972 110.591 74.7307 105.597 71.4286 99.0724Z" fill="black"/>
</g>
<defs>
<clipPath id="clip0_1_164">
<rect width="120" height="120" fill="white"/>
</clipPath>
</defs>
</svg>
