<svg width="120" height="120" viewBox="0 0 120 120" fill="none" xmlns="http://www.w3.org/2000/svg">
<path d="M33.1745 94.2682C32.4478 93.1848 31.8122 91.724 31.2961 89.9761C21.9783 79.4682 29.1764 64.0047 36.2963 53.5043C36.9789 52.3816 37.7224 51.2971 38.5308 50.2596C43.9631 43.5103 45.3683 38.8133 45.7864 32.459C45.8363 31.2759 45.7383 29.7101 45.6258 27.9105C45.0511 18.7237 44.0959 3.45997 60.4873 2.10675C80.9765 0.415009 79.3074 19.2303 79.156 30.2616C79.1497 30.718 79.1433 31.1622 79.1392 31.5908C79.0835 38.2404 82.5539 42.7935 86.1762 47.5455C87.499 49.2812 88.8422 51.0431 90.0415 52.9435C90.0768 52.9998 90.1122 53.0566 90.1476 53.1129C96.4776 62.2423 102.727 75.8667 94.0285 88.7895C92.806 93.2005 90.9549 97.249 88.4838 100.544C79.6119 112.218 71.7265 111.033 65.5681 110.107C63.7106 109.828 62.0102 109.573 60.4873 109.701C57.9576 109.855 55.9301 110.264 54.1787 110.618C47.4091 111.984 44.7634 112.518 33.1745 94.2682Z" fill="black"/>
<path d="M72.0744 12.4071C71.8842 17.8144 66.1486 22.5113 59.2729 22.9455C52.3971 23.3797 47.0025 19.2748 47.1927 13.8675C47.3824 8.46014 53.1185 3.76328 59.9943 3.32908C66.87 2.93443 72.264 6.9998 72.0744 12.4071Z" fill="url(#paint0_linear_1_118)"/>
<path fill-rule="evenodd" clip-rule="evenodd" d="M59.6157 25.5507C59.6707 28.491 61.0174 30.9981 62.9085 32.1307C56.7386 31.578 49.0933 33.8334 49.0933 38.1023C48.9981 45.3231 44.9792 54.3075 42.0859 60.7744C41.5164 62.0485 40.9904 63.2246 40.5461 64.2703C38.7553 68.705 37.6807 73.4484 37.5537 78.1C32.8103 71.5618 36.2569 63.1742 38.115 59.5339C40.5879 54.7436 40.5403 54.1457 39.58 55.2685C35.8979 61.5295 28.9642 74.1054 37.647 81.6603C37.9225 85.0338 38.7443 88.3023 40.2046 91.307C51.8283 114.752 73.5951 105.122 80.7747 92.965C81.7298 91.2362 82.5023 89.5642 83.1153 87.9485C83.4749 88.1747 83.86 88.3499 84.2694 88.4653C87.8783 89.5312 93.2724 85.4658 94.5639 82.9396C96.1216 79.5847 94.5262 77.2951 89.2081 74.5717C88.9367 74.4377 88.6688 74.3113 88.4044 74.1936C90.444 65.6053 84.8232 56.6742 80.8089 52.8855C80.0602 52.7005 79.9547 53.125 81.1168 54.2843C83.6448 56.7073 89.1438 65.3455 86.1687 73.3851C85.6786 73.2535 85.2071 73.1607 84.7577 73.1097C83.8437 67.6246 81.4068 63.3574 79.7035 60.3754C79.3179 59.6998 78.9699 59.0903 78.6852 58.5474C78.1122 57.4519 77.4267 56.3176 76.6995 55.1148C73.8978 50.4793 70.4802 44.8244 70.4802 36.4443C70.0516 34.6006 68.3118 33.3712 65.9961 32.6921C68.6841 32.1498 70.7017 29.0095 70.6322 25.2352C70.5562 21.1696 68.0108 17.933 64.972 18.012C61.9331 18.091 59.502 21.4853 59.6157 25.5507ZM62.1227 26.4583C62.085 28.7085 63.1486 30.5237 64.5544 30.5237C65.9219 30.5237 67.0992 28.7085 67.1374 26.4977C67.1751 24.2482 66.1115 22.4326 64.7064 22.4326C63.3006 22.4326 62.161 24.2482 62.1227 26.4583Z" fill="url(#paint1_linear_1_118)"/>
<path fill-rule="evenodd" clip-rule="evenodd" d="M52.0184 31.8657C54.2216 31.7474 55.817 28.7873 55.6273 25.2747C55.4371 21.7616 53.5001 19.0382 51.2964 19.1566C49.0932 19.275 47.4978 22.2353 47.688 25.7479C47.8776 29.2606 49.8152 31.984 52.0184 31.8657ZM53.3476 26.4978C53.5378 28.353 52.8541 29.9316 51.8664 30.0899C50.8788 30.2082 49.9289 28.8268 49.7392 26.9716C49.549 25.1166 50.2328 23.5377 51.2204 23.3799C52.208 23.2615 53.158 24.6429 53.3476 26.4978Z" fill="url(#paint2_linear_1_118)"/>
<path d="M62.6922 25.1954C62.5779 26.4583 63.148 27.4848 63.9454 27.5637C64.7434 27.6426 65.5032 26.6555 65.6168 25.4324C65.7311 24.1691 65.161 23.1429 64.3636 23.064C63.5656 22.9851 62.8059 23.9718 62.6922 25.1954Z" fill="url(#paint3_linear_1_118)"/>
<path d="M52.5137 25.5119C52.6274 26.5384 52.2098 27.446 51.602 27.5248C50.9943 27.6037 50.4242 26.8144 50.3099 25.7491C50.1963 24.7226 50.6138 23.8148 51.2222 23.7359C51.83 23.657 52.3995 24.4858 52.5137 25.5119Z" fill="url(#paint4_linear_1_118)"/>
<path d="M75.8736 66.6776C75.8736 73.6241 69.4536 82.6236 58.4377 82.5447C47.0791 82.6236 42.2551 73.6241 42.2551 66.6776C42.2551 59.7311 49.7763 54.0866 59.0455 54.0866C68.3523 54.1266 75.8736 59.7311 75.8736 66.6776Z" fill="url(#paint5_linear_1_118)"/>
<path d="M69.8746 44.8528C69.761 52.0365 65.2404 53.7334 59.5419 53.7334C53.844 53.7334 49.7032 52.6675 49.2097 44.8528C49.2097 39.9587 53.844 37.1164 59.5419 37.1164C65.2404 37.077 69.8746 39.9193 69.8746 44.8528Z" fill="url(#paint6_linear_1_118)"/>
<path d="M35.4206 55.9035C39.1438 50.0229 47.0066 40.984 36.9023 57.1666C28.6968 70.5075 33.8634 79.0726 36.5225 81.4404C44.1956 88.5453 43.8917 93.3211 37.8517 89.5712C24.8983 81.5588 27.5955 68.0601 35.4206 55.9035Z" fill="url(#paint7_linear_1_118)"/>
<path d="M89.3229 58.312C86.0944 51.405 75.8376 33.8804 89.817 54.2466C102.543 72.6788 93.6156 85.5065 92.0202 86.7696C90.4248 88.0327 85.0685 90.5977 86.6262 86.138C88.2216 81.6777 96.1226 73.2315 89.3229 58.312Z" fill="url(#paint8_linear_1_118)"/>
<path d="M32.6097 112.78C24.1005 108.083 11.7547 113.688 16.2371 100.979C17.1489 98.0974 14.9076 93.756 16.3511 90.9532C18.0605 87.5193 21.7453 88.2692 23.9485 85.9802C26.1138 83.6123 27.4813 79.5075 31.5461 80.1385C35.5726 80.77 38.2699 85.9013 41.0808 92.2163C43.1703 96.716 50.5396 103.07 50.0455 108.123C49.4377 115.859 40.9666 117.319 32.6097 112.78Z" fill="url(#paint9_linear_1_118)"/>
<path fill-rule="evenodd" clip-rule="evenodd" d="M24.8833 86.9053C22.8141 89.1688 19.0137 88.626 17.4884 91.5871C16.5089 93.4887 17.5791 96.4116 17.7235 98.4942C17.9019 101.067 15.769 104.713 16.8552 106.91C18.0751 109.378 23.5861 109.058 26.0088 109.412C31.9891 110.285 41.8736 118.025 47.2815 111.848C52.5682 105.81 42.4065 98.1682 39.9139 92.8003C38.293 89.1583 35.8671 82.1765 31.3517 81.4672C28.1685 80.9731 26.7186 84.8981 24.8833 86.9053ZM31.7362 78.8105C37.3587 79.6926 40.172 86.9812 42.247 91.6422C45.3967 98.4014 56.1887 105.667 49.1941 113.656C42.8415 120.912 32.812 113.118 25.6486 112.072C22.0708 111.549 16.4275 111.925 14.5553 108.137C12.9457 104.882 15.3698 101.933 15.1448 98.6873C14.9531 95.9222 13.8588 92.9529 15.2045 90.3281C17.0468 86.6391 20.6034 87.5322 23.0207 85.0425C25.5877 82.2217 27.1263 78.0943 31.7362 78.8105Z" fill="#E68C3F"/>
<path d="M91.6038 110.61C97.8335 102.756 111.699 104.374 102.354 93.5983C100.379 91.2698 100.987 86.2963 98.5555 84.165C95.7063 81.5599 92.5532 83.6912 89.6662 82.3492C86.7793 80.8889 83.7404 78.0867 80.2074 80.0602C76.6745 82.0732 76.2946 87.2833 75.953 94.151C75.6491 99.0845 71.3187 107.334 73.6356 111.873C76.9789 118.898 85.678 117.951 91.6038 110.61Z" fill="url(#paint10_linear_1_118)"/>
<path fill-rule="evenodd" clip-rule="evenodd" d="M94.0877 81.441C95.6849 81.3987 97.5981 81.5106 99.3947 83.1478C101.629 85.1178 101.651 88.3336 102.494 91.0262C103.491 94.2147 106.988 96.0363 106.778 99.7758C106.437 105.888 95.8513 107.36 92.5932 111.468C89.4621 115.347 85.5046 117.656 81.749 117.968C76.0534 118.44 71.3489 113.651 71.6818 107.803C71.9521 103.069 74.3634 98.769 74.6575 94.0732C74.8268 90.6725 75.0095 87.5199 75.6242 84.9601C76.2453 82.373 77.3646 80.1454 79.5811 78.8823C84.4352 76.1706 89.1246 81.5709 94.0877 81.441ZM80.8199 81.241C79.5058 81.9914 78.6701 83.3745 78.133 85.6102C77.5896 87.8731 77.411 90.7728 77.2382 94.2368C76.9482 98.9436 74.5322 103.241 74.2631 107.962C74.023 112.172 77.2568 115.645 81.5437 115.29C84.4532 115.048 87.8099 113.211 90.6046 109.751C93.1018 106.605 103.97 103.684 104.197 99.6198C104.346 96.966 100.854 94.4763 100.034 91.8573C99.393 89.8072 99.3593 86.6315 97.717 85.1915C96.6673 84.2323 95.5631 84.0896 94.1527 84.1267C90.0658 84.2334 84.6138 79.1271 80.8199 81.241Z" fill="#E68C3F"/>
<path d="M88.9024 100.11C98.5508 85.3092 91.3712 85.4275 88.9401 84.2827C86.509 83.0991 83.9642 80.77 81.115 82.3886C78.2657 84.0461 78.1138 88.3086 78.0378 93.9137C77.9242 97.9397 74.6951 104.689 76.6326 108.438C78.9878 112.82 84.6857 106.465 88.9024 100.11Z" fill="url(#paint11_linear_1_118)"/>
<path d="M30.6337 102.24C16.1984 92.5312 22.9601 89.2157 25.1254 87.6759C27.7468 85.7024 27.7845 81.9137 31.0136 82.2686C34.2421 82.6241 36.1414 86.7683 38.3069 91.8996C39.9023 95.57 45.4488 100.464 45.0307 104.687C44.4989 109.661 36.8634 106.385 30.6337 102.24Z" fill="url(#paint12_linear_1_118)"/>
<path d="M93.7304 82.8213C92.5908 84.8737 87.9565 88.1098 84.8794 87.2416C81.7268 86.4129 80.2834 81.7948 80.9288 78.3216C81.4989 74.3745 84.8794 74.1774 89.1344 76.1509C93.6544 78.2822 95.0602 80.0979 93.7304 82.8213Z" fill="black"/>
<path d="M90.6145 81.6771C89.8924 83.0979 86.8536 85.3475 84.7263 84.7554C82.5991 84.1633 81.5355 80.9667 81.8771 78.5588C82.181 75.8354 84.4601 75.6776 87.3477 77.0196C90.4625 78.5193 91.4501 79.7824 90.6145 81.6771Z" fill="url(#paint13_linear_1_118)"/>
<path d="M51.3329 30.171C52.8523 28.7102 56.5373 24.2503 63.5267 28.9079C64.8182 29.7761 65.8818 29.855 68.3512 30.9603C73.3276 33.0916 70.9719 38.2223 65.6539 39.9592C63.3747 40.7091 61.3235 43.5902 57.221 43.3142C53.688 43.117 52.7764 40.7091 50.6109 39.4065C46.7746 37.157 46.2045 34.1175 48.294 32.4995C50.3829 30.8815 51.1809 30.2893 51.3329 30.171Z" fill="url(#paint14_linear_1_118)"/>
<path fill-rule="evenodd" clip-rule="evenodd" d="M48.7573 33.1444C47.9628 33.7597 47.71 34.5774 47.9727 35.4821C48.512 37.3403 52.4011 39.896 53.8904 41.1464C54.7371 41.8574 55.7056 42.4211 57.2708 42.5087C60.6229 42.7343 62.4845 40.1553 65.4213 39.1891C67.3525 38.5581 71.4393 36.1479 70.0857 33.3857C68.9305 31.0282 65.0391 30.8826 63.1062 29.5836C59.7796 27.3676 57.3578 27.3833 55.6325 28.005C53.7419 28.6864 50.4693 31.8181 48.7573 33.1444ZM55.1239 26.4821C57.3683 25.6736 60.2859 25.7896 63.9477 28.2294C66.3544 29.8475 70.0161 29.6915 71.4677 32.6544C73.3171 36.428 68.836 39.7632 65.887 40.7265C62.7292 41.7663 60.965 44.3708 57.1746 44.1174C55.2091 44.0066 53.9484 43.2672 52.9155 42.4002C50.7726 40.6012 47.1521 38.8916 46.3245 36.0389C45.8652 34.4568 46.535 32.855 47.83 31.8517C49.923 30.2308 52.7514 27.3375 55.1239 26.4821Z" fill="#E68C3F"/>
<path fill-rule="evenodd" clip-rule="evenodd" d="M68.9462 34.2857C68.9619 34.5821 68.7432 34.8355 68.4585 34.8512C64.4378 35.0791 61.6123 39.6676 57.072 39.6676C54.5313 39.6676 52.5201 38.4416 51.0818 37.2626C50.7924 37.0254 48.2355 35.0541 48.2355 34.5519C48.2355 34.255 48.4669 34.0143 48.7528 34.0143C49.2869 34.0143 50.8985 35.7634 51.4982 36.2552C52.8529 37.3658 54.8642 38.5929 57.072 38.5929C61.5671 38.5929 64.3247 34.0097 68.4017 33.7783C68.687 33.762 68.9306 33.9894 68.9462 34.2857Z" fill="#E68C3F"/>
<path d="M53.6921 29.7749C54.4518 29.0645 56.8446 27.1304 59.9977 29.1039C60.6815 29.4983 61.3652 29.9327 62.3529 30.5248C64.3664 31.7485 63.3788 33.5242 60.9471 34.6296C59.8458 35.1034 58.0225 36.1293 56.655 36.0504C55.1355 35.8927 54.1096 34.8662 53.122 34.1952C51.2604 32.9327 51.3746 31.8668 52.248 31.038C52.8941 30.4065 53.6161 29.8144 53.6921 29.7749Z" fill="url(#paint15_linear_1_118)"/>
<defs>
<linearGradient id="paint0_linear_1_118" x1="60.7302" y1="3.77563" x2="59.4463" y2="21.1727" gradientUnits="userSpaceOnUse">
<stop stop-color="white" stop-opacity="0.8"/>
<stop offset="1" stop-color="white" stop-opacity="0"/>
</linearGradient>
<linearGradient id="paint1_linear_1_118" x1="42.3973" y1="98.6878" x2="32.8515" y2="67.3683" gradientUnits="userSpaceOnUse">
<stop stop-color="#FFEED7"/>
<stop offset="1" stop-color="#BDBFC2"/>
</linearGradient>
<linearGradient id="paint2_linear_1_118" x1="42.3972" y1="98.6879" x2="32.8514" y2="67.3683" gradientUnits="userSpaceOnUse">
<stop stop-color="#FFEED7"/>
<stop offset="1" stop-color="#BDBFC2"/>
</linearGradient>
<linearGradient id="paint3_linear_1_118" x1="64.2696" y1="23.1994" x2="63.7285" y2="27.2517" gradientUnits="userSpaceOnUse">
<stop stop-color="white" stop-opacity="0.65"/>
<stop offset="1" stop-color="white" stop-opacity="0"/>
</linearGradient>
<linearGradient id="paint4_linear_1_118" x1="51.3132" y1="23.9387" x2="51.8955" y2="27.2175" gradientUnits="userSpaceOnUse">
<stop stop-color="white" stop-opacity="0.65"/>
<stop offset="1" stop-color="white" stop-opacity="0"/>
</linearGradient>
<linearGradient id="paint5_linear_1_118" x1="59.0107" y1="57.8516" x2="59.1075" y2="81.0294" gradientUnits="userSpaceOnUse">
<stop stop-color="white" stop-opacity="0.8"/>
<stop offset="1" stop-color="white" stop-opacity="0"/>
</linearGradient>
<linearGradient id="paint6_linear_1_118" x1="59.5274" y1="43.3189" x2="59.6341" y2="52.5347" gradientUnits="userSpaceOnUse">
<stop stop-color="white" stop-opacity="0.65"/>
<stop offset="1" stop-color="white" stop-opacity="0"/>
</linearGradient>
<linearGradient id="paint7_linear_1_118" x1="35.5737" y1="49.0068" x2="35.5737" y2="82.8271" gradientUnits="userSpaceOnUse">
<stop stop-color="white" stop-opacity="0.65"/>
<stop offset="1" stop-color="white" stop-opacity="0"/>
</linearGradient>
<linearGradient id="paint8_linear_1_118" x1="89.5833" y1="45.7036" x2="89.5705" y2="76.2623" gradientUnits="userSpaceOnUse">
<stop stop-color="white" stop-opacity="0.65"/>
<stop offset="1" stop-color="white" stop-opacity="0"/>
</linearGradient>
<linearGradient id="paint9_linear_1_118" x1="33.8838" y1="97.3267" x2="28.7038" y2="114.632" gradientUnits="userSpaceOnUse">
<stop stop-color="#FFA63F"/>
<stop offset="1" stop-color="#FFFF00"/>
</linearGradient>
<linearGradient id="paint10_linear_1_118" x1="82.9082" y1="92.0643" x2="96.7316" y2="110.913" gradientUnits="userSpaceOnUse">
<stop stop-color="#FFA63F"/>
<stop offset="1" stop-color="#FFFF00"/>
</linearGradient>
<linearGradient id="paint11_linear_1_118" x1="86.607" y1="77.0051" x2="81.7732" y2="99.7804" gradientUnits="userSpaceOnUse">
<stop stop-color="white" stop-opacity="0.65"/>
<stop offset="1" stop-color="white" stop-opacity="0"/>
</linearGradient>
<linearGradient id="paint12_linear_1_118" x1="32.827" y1="82.6357" x2="33.7857" y2="108.267" gradientUnits="userSpaceOnUse">
<stop stop-color="white" stop-opacity="0.65"/>
<stop offset="1" stop-color="white" stop-opacity="0"/>
</linearGradient>
<linearGradient id="paint13_linear_1_118" x1="85.7702" y1="76.5893" x2="86.8913" y2="84.248" gradientUnits="userSpaceOnUse">
<stop stop-color="white" stop-opacity="0.65"/>
<stop offset="1" stop-color="white" stop-opacity="0"/>
</linearGradient>
<linearGradient id="paint14_linear_1_118" x1="59.0287" y1="29.7442" x2="59.122" y2="43.2324" gradientUnits="userSpaceOnUse">
<stop stop-color="#FFA63F"/>
<stop offset="1" stop-color="#FFFF00"/>
</linearGradient>
<linearGradient id="paint15_linear_1_118" x1="57.5568" y1="28.4672" x2="57.5312" y2="35.5993" gradientUnits="userSpaceOnUse">
<stop stop-color="white" stop-opacity="0.65"/>
<stop offset="1" stop-color="white" stop-opacity="0"/>
</linearGradient>
</defs>
</svg>
