<svg width="120" height="120" viewBox="0 0 120 120" fill="none" xmlns="http://www.w3.org/2000/svg">
<path d="M6.84246 89.985C7.39726 90.9286 8.19862 91.7116 9.16438 92.2536L56.8355 119.157C58.7875 120.281 61.2122 120.281 63.1642 119.157L110.835 92.2536C112.808 91.1695 114.02 89.1016 114 86.8931V33.1069C114 30.8984 112.808 28.8305 110.835 27.7464L63.1848 0.843233C61.2327 -0.281077 58.8081 -0.281077 56.856 0.843233L9.16438 27.7464C7.19178 28.8305 6 30.8784 6 33.1069V86.8931C6 87.9773 6.28767 89.0614 6.84246 89.985Z" fill="#009639"/>
<path d="M43.2444 80.7929C43.2444 84.0929 40.2667 86.7529 36.6222 86.7529C32.9778 86.7529 30 84.0729 30 80.7929V39.8329C30.2444 36.4129 33.5333 33.7929 37.3333 34.0129C37.4 34.0129 37.4667 34.0129 37.5111 34.0129C40.9778 33.9729 44.2667 35.2929 46.5556 37.6529L48.5556 39.8129L76.2667 69.6529V39.9929C76.2667 36.6929 79.2222 34.0329 82.8889 34.0129C86.5556 34.0129 89.5111 36.6729 89.5333 39.9729V80.9329C89.2889 84.3529 86 86.9729 82.1778 86.7529C82.1111 86.7529 82.0444 86.7529 82 86.7529C78.5333 86.7929 75.2444 85.4729 72.9556 83.1129L43.2444 51.1129V80.7729V80.7929Z" fill="white"/>
</svg>
