<svg width="120" height="120" viewBox="0 0 120 120" fill="none" xmlns="http://www.w3.org/2000/svg">
<g clip-path="url(#clip0_1_160)">
<path d="M59.3717 0.000984936C54.4164 0.0238042 49.6842 0.442647 45.5203 1.17286C33.2541 3.32054 31.0271 7.81583 31.0271 16.1059V27.0546H60.0136V30.7041H31.0271H20.1487C11.7244 30.7041 4.34787 35.7224 2.04058 45.2688C-0.620848 56.2113 -0.738897 63.0396 2.04058 74.4653C4.10104 82.9701 9.02171 89.03 17.446 89.03H27.4122V75.905C27.4122 66.423 35.6902 58.059 45.5203 58.059H74.473C82.5324 58.059 88.9663 51.4824 88.9663 43.4608V16.1059C88.9663 8.32053 82.3393 2.47221 74.473 1.17286C69.4936 0.351369 64.327 -0.0218347 59.3717 0.000984936ZM43.696 8.80679C46.6901 8.80679 49.1352 11.2696 49.1352 14.2979C49.1352 17.3154 46.6901 19.7554 43.696 19.7554C40.6911 19.7554 38.2568 17.3154 38.2568 14.2979C38.2568 11.2696 40.6911 8.80679 43.696 8.80679Z" fill="#328CE0"/>
<path d="M92.5811 30.7041V43.4608C92.5811 53.3509 84.1207 61.6751 74.473 61.6751H45.5203C37.5897 61.6751 31.0271 68.402 31.0271 76.2733V103.628C31.0271 111.414 37.858 115.993 45.5203 118.226C54.6958 120.9 63.4946 121.384 74.473 118.226C81.7705 116.132 88.9663 111.918 88.9663 103.628V92.6795H60.0136V89.03H88.9663H103.46C111.884 89.03 115.023 83.2063 117.953 74.4653C120.979 65.4664 120.85 56.8126 117.953 45.2688C115.871 36.9573 111.895 30.7041 103.46 30.7041H92.5811ZM76.2973 99.9787C79.3022 99.9787 81.7365 102.419 81.7365 105.436C81.7365 108.464 79.3022 110.927 76.2973 110.927C73.3032 110.927 70.8581 108.464 70.8581 105.436C70.8582 102.419 73.3032 99.9787 76.2973 99.9787Z" fill="#F7DF1E"/>
</g>
<defs>
<clipPath id="clip0_1_160">
<rect width="120" height="120" fill="white"/>
</clipPath>
</defs>
</svg>
