<svg width="120" height="120" viewBox="0 0 120 120" fill="none" xmlns="http://www.w3.org/2000/svg">
<g clip-path="url(#clip0_1_85)">
<path d="M59.6957 71.4532C65.6027 71.4532 70.3913 66.4269 70.3913 60.2266C70.3913 54.0263 65.6027 49 59.6957 49C53.7886 49 49 54.0263 49 60.2266C49 66.4269 53.7886 71.4532 59.6957 71.4532Z" fill="#61DAFB"/>
<path d="M60.3913 82.6709C92.0876 82.6709 117.783 72.3731 117.783 59.6701C117.783 46.967 92.0876 36.6692 60.3913 36.6692C28.695 36.6692 3 46.967 3 59.6701C3 72.3731 28.695 82.6709 60.3913 82.6709Z" stroke="#61DAFB" stroke-width="4"/>
<path d="M41.414 71.1705C57.2622 99.9831 78.6061 118.191 89.0869 111.84C99.5678 105.488 95.2167 76.9822 79.3685 48.1697C63.5203 19.3572 42.1764 1.14892 31.6956 7.50043C21.2147 13.8519 25.5658 42.358 41.414 71.1705Z" stroke="#61DAFB" stroke-width="4"/>
<path d="M41.414 48.1697C25.5659 76.9822 21.2148 105.488 31.6956 111.84C42.1765 118.191 63.5204 99.9831 79.3686 71.1705C95.2167 42.358 99.5678 13.8519 89.087 7.50042C78.6061 1.14891 57.2622 19.3572 41.414 48.1697Z" stroke="#61DAFB" stroke-width="4"/>
</g>
<defs>
<clipPath id="clip0_1_85">
<rect width="120" height="120" fill="white"/>
</clipPath>
</defs>
</svg>
